<svg class="icon" viewBox="0 0 1024 1024" xmlns="http://www.w3.org/2000/svg" width="200" height="200"><defs><style/></defs><path d="M800.497 990.594H244.269c-67.125 0-121.735-54.61-121.735-121.735V155.141c0-67.125 54.61-121.735 121.735-121.735H657.04l9.853 7.144c3.412 2.475 84.01 61.06 129.394 104.522 45.843 43.894 115.64 138.037 118.584 142.022l7.35 9.937V868.87c.01 67.115-54.6 121.725-121.725 121.725zM244.269 108.406c-25.772 0-46.735 20.963-46.735 46.735v713.728c0 25.772 20.963 46.734 46.735 46.734h556.228c25.772 0 46.734-20.962 46.734-46.734V321.894c-18.825-24.9-69.59-90.844-102.806-122.653-33.01-31.603-89.344-74.138-111.853-90.835H244.269z"/><path d="M685.044 592.156H360.669c-20.71 0-37.5-16.79-37.5-37.5s16.79-37.5 37.5-37.5h324.375c20.71 0 37.5 16.79 37.5 37.5s-16.79 37.5-37.5 37.5zm0 195H360.669c-20.71 0-37.5-16.79-37.5-37.5s16.79-37.5 37.5-37.5h324.375c20.71 0 37.5 16.79 37.5 37.5s-16.79 37.5-37.5 37.5zm171.562-445.312H713.094c-60.44 0-109.613-49.172-109.613-109.613V90.594h75V232.23c0 19.088 15.525 34.613 34.613 34.613h143.512v75z"/></svg>