<svg class="icon" viewBox="0 0 1024 1024" xmlns="http://www.w3.org/2000/svg" width="200" height="200"><defs><style/></defs><path d="M384 554.8h379.4l-87.2 89.4L736 704l192-192-192-192-62 59.8 89.4 89.4H384v85.6z"/><path d="M511.4 842.6c-88.2 0-171-34.4-233.4-96.8-62.4-62.4-96.6-145.4-96.6-233.8 0-88.2 34.4-171.4 96.6-233.8 62.4-62.4 145.2-96.8 233.4-96.8 88 0 170.6 34.2 233 96.4l60.6-60.6c-17-16.8-35.6-32.4-55.4-46.4C679.4 122 597.2 96 511.4 96 282.4 96 96 282.6 96 512s186.4 416 415.4 416c85.8 0 168-26 238-75 20-14 38.4-29.4 55.4-46.4l-60.4-60.4c-62.2 62.2-145 96.4-233 96.4zm384.608-328.906l-1.698-1.696 1.698-1.698 1.696 1.698z"/></svg>